<svg xmlns="http://www.w3.org/2000/svg" viewBox="0 0 78.99 90.99"><defs><style>.cls-1{fill:#101312;}</style></defs><title>Ресурс 3</title><g id="Слой_2" data-name="Слой 2"><g id="Слой_1-2" data-name="Слой 1"><path class="cls-1" d="M20.66,37.64a1.58,1.58,0,0,0,2.22,0l6.2-6.15a1.55,1.55,0,0,0,0-2.21,1.58,1.58,0,0,0-2.22,0l-5.09,5.05-2-2a1.58,1.58,0,0,0-2.22,0,1.55,1.55,0,0,0,0,2.2Zm33.66-5.74H35.65a1.56,1.56,0,1,0,0,3.12H54.32a1.56,1.56,0,1,0,0-3.12ZM20.66,64.32a1.58,1.58,0,0,0,2.22,0l6.2-6.15a1.55,1.55,0,0,0,0-2.21,1.58,1.58,0,0,0-2.22,0L21.77,61l-2-2a1.58,1.58,0,0,0-2.22,0,1.55,1.55,0,0,0,0,2.21Zm33.66-5.74H35.65a1.56,1.56,0,1,0,0,3.12H54.32a1.56,1.56,0,1,0,0-3.12ZM26.85,69.31l-5.09,5.05-2-2a1.58,1.58,0,0,0-2.22,0,1.55,1.55,0,0,0,0,2.2l3.1,3.08a1.58,1.58,0,0,0,2.22,0l6.2-6.15a1.55,1.55,0,0,0,0-2.2A1.58,1.58,0,0,0,26.85,69.31Zm27.47,2.62H35.65a1.56,1.56,0,1,0,0,3.12H54.32a1.56,1.56,0,1,0,0-3.12ZM26.85,42.62l-5.09,5.05-2-2a1.58,1.58,0,0,0-2.22,0,1.55,1.55,0,0,0,0,2.2L20.66,51a1.58,1.58,0,0,0,2.22,0l6.2-6.15a1.55,1.55,0,0,0,0-2.2A1.58,1.58,0,0,0,26.85,42.62Zm27.47,2.62H35.65a1.56,1.56,0,1,0,0,3.12H54.32a1.56,1.56,0,1,0,0-3.12ZM76.9,11.39H58.43a6.14,6.14,0,0,0-6.14-5.69h-6a5.81,5.81,0,0,0-11.62,0h-6a6.13,6.13,0,0,0-6.13,5.69H2.09A2.08,2.08,0,0,0,0,13.47V88.91A2.08,2.08,0,0,0,2.09,91H76.9A2.08,2.08,0,0,0,79,88.91V13.47A2.09,2.09,0,0,0,76.9,11.39ZM28.69,9.86h6.54a3.63,3.63,0,0,0,3.64-3.61V5.78a1.63,1.63,0,0,1,3.25,0v.48a3.63,3.63,0,0,0,3.63,3.61h6.54a2,2,0,0,1,2,2v4.26H26.72V11.83h0A2,2,0,0,1,28.69,9.86Zm46.12,77H4.18V15.55H22.54v2.62a2.08,2.08,0,0,0,2.09,2.08H56.36a2.08,2.08,0,0,0,2.09-2.08V15.55H74.81ZM40.5,14.12a2,2,0,1,0-2-2A2,2,0,0,0,40.5,14.12Z"/></g></g></svg>