<svg xmlns="http://www.w3.org/2000/svg" viewBox="0 0 79.98 83.03"><defs><style>.cls-1{fill:#101312;}</style></defs><title>Ресурс 1</title><g id="Слой_2" data-name="Слой 2"><g id="Слой_1-2" data-name="Слой 1"><path class="cls-1" d="M78,0H66a2,2,0,0,0-2,2V6.19H15.86V2a2,2,0,0,0-2-2H2A2,2,0,0,0,0,2V14.29a2,2,0,0,0,2,2H13.95a2,2,0,0,0,2-2V10.13H38.13c-.23,5-12.26,28.24-19.91,42a2.08,2.08,0,0,0,.45,2.48c6.86,5.85,8.55,11.59,9,14.51H25.09a2,2,0,0,0-2,2V81a2,2,0,0,0,2,2H55a2,2,0,0,0,2-2V71.1a2,2,0,0,0-2-2H52.42c.45-2.92,2.14-8.66,9-14.51a2.05,2.05,0,0,0,.45-2.48C54.22,38.36,42.18,15,42,10.13H64v4.16a2,2,0,0,0,2,2H78a2,2,0,0,0,2-2V2A2,2,0,0,0,78,0Zm-66,12.26h-8V3.94h8ZM40,45.23a2.59,2.59,0,1,1-2.59,2.59A2.7,2.7,0,0,1,40,45.23Zm13,33.64h-26v-6h26ZM48.48,69H31.61c-.45-3.26-2.14-9.79-9.22-16.43,2.7-5,10.8-19.8,15.64-30.83V41.63a6.45,6.45,0,0,0-4.5,6.19,6.52,6.52,0,1,0,8.55-6.19v-20C47,32.63,55,47.48,57.71,52.54,50.62,59.18,48.93,65.7,48.48,69ZM76,12.26h-8V4.05h8Z"/></g></g></svg>