<svg xmlns="http://www.w3.org/2000/svg" viewBox="0 0 79 76"><defs><style>.cls-1{fill:#101312;}</style></defs><title>Ресурс 2</title><g id="Слой_2" data-name="Слой 2"><g id="Слой_1-2" data-name="Слой 1"><path class="cls-1" d="M76.92,0H2.08A2.09,2.09,0,0,0,0,2.1V73.91A2.09,2.09,0,0,0,2.08,76H76.92A2.09,2.09,0,0,0,79,73.91V2.1A2.09,2.09,0,0,0,76.92,0ZM74.84,71.81H4.16V15.09H74.84Zm0-60.92H4.16V4.2H74.84ZM9.18,9A1.47,1.47,0,1,0,7.73,7.54,1.46,1.46,0,0,0,9.18,9Zm4.35,0a1.47,1.47,0,1,0-1.45-1.47A1.46,1.46,0,0,0,13.53,9Zm4.35,0a1.47,1.47,0,1,0-1.45-1.47A1.46,1.46,0,0,0,17.88,9Zm9.88,39.63a1.81,1.81,0,0,0,2.57,0,1.85,1.85,0,0,0,0-2.6L26,41.63l4.36-4.41a1.85,1.85,0,0,0,0-2.6,1.81,1.81,0,0,0-2.57,0l-5.65,5.7a1.85,1.85,0,0,0,0,2.6Zm25.28-7L48.68,46a1.85,1.85,0,0,0,0,2.6,1.8,1.8,0,0,0,2.57,0l5.65-5.7a1.85,1.85,0,0,0,0-2.6l-5.66-5.71a1.81,1.81,0,0,0-2.57,0,1.85,1.85,0,0,0,0,2.6ZM36.44,53.37A1.81,1.81,0,0,0,38.66,52l4.62-18.28a1.82,1.82,0,1,0-3.53-.91L35.13,51.13A1.84,1.84,0,0,0,36.44,53.37Z"/></g></g></svg>